<svg xmlns="http://www.w3.org/2000/svg" version="1.1" xmlns:xlink="http://www.w3.org/1999/xlink" width="512" height="512" x="0" y="0" viewBox="0 0 64 64" style="enable-background:new 0 0 512 512" xml:space="preserve"><g><linearGradient id="a" x1="32" x2="32" y1="63" y2="1" gradientUnits="userSpaceOnUse"><stop offset="0" stop-color="#9f2fff"></stop><stop offset="1" stop-color="#0bb1d3"></stop></linearGradient><path fill="url(#a)" d="M56 30c-.63 0-1.253.086-1.861.255a6.91 6.91 0 0 0-4.193-2.192C49.48 24.092 46.094 21 42 21c-.929 0-1.838.16-2.709.477A11.997 11.997 0 0 0 32 19c-6.254 0-11.406 4.809-11.948 11H20c-3.86 0-7 3.141-7 7s3.14 7 7 7h15.552A15.96 15.96 0 0 1 25 48c-8.822 0-16-7.178-16-16s7.178-16 16-16c2.102 0 4.002.314 5.647.936l.17.064H55v-2H31.179c-1.83-.664-3.908-1-6.179-1-9.925 0-18 8.075-18 18s8.075 18 18 18c5.13 0 9.974-2.19 13.39-6h2.958l.846 1.919-3.251 3.251-2.109-1.045-.485.334a19.76 19.76 0 0 1-7.732 3.197l-.58.105L27.282 54h-4.563l-.755-2.238-.58-.105a19.77 19.77 0 0 1-7.732-3.197l-.485-.334-2.109 1.045-3.228-3.228 1.045-2.11-.335-.484a19.783 19.783 0 0 1-3.197-7.732l-.106-.58L3 34.282v-4.564l2.237-.754.106-.58a19.762 19.762 0 0 1 3.197-7.732l.335-.484-1.045-2.11 3.227-3.227 2.109 1.045.485-.334a19.76 19.76 0 0 1 7.732-3.197l.58-.105.755-2.24h4.563l.755 2.238.58.105c.452.083.914.234 1.403.395.233.076.465.151.695.221L44.535 13l2-3H51V8h-5.535l-2 3H31.148a29.582 29.582 0 0 1-.507-.163c-.35-.114-.707-.231-1.078-.328L28.718 8h-7.437l-.84 2.491a21.715 21.715 0 0 0-7.435 3.073L10.659 12.4 5.4 17.658l1.164 2.349a21.72 21.72 0 0 0-3.074 7.436L1 28.282v7.436l2.491.84a21.728 21.728 0 0 0 3.074 7.436L5.4 46.342l5.258 5.258 2.349-1.164a21.695 21.695 0 0 0 7.435 3.073l.84 2.491h7.437l.84-2.491a21.715 21.715 0 0 0 7.435-3.073l2.349 1.164 5.234-5.233L43.533 44H56c3.86 0 7-3.141 7-7s-3.14-7-7-7zm0 12H20c-2.757 0-5-2.243-5-5s2.243-5 5-5a5 5 0 0 1 .836.076l1.164.109V31c0-5.514 4.486-10 10-10 2.365 0 4.664.848 6.473 2.386l.483.41.577-.261A5.95 5.95 0 0 1 42 23c2.607 0 4.824 1.673 5.65 4H42v2h2v9h-2v2h6v-2h-2v-9h2v1h1c1.589 0 3.048.735 4.005 2.018l.457.612.711-.279A4.96 4.96 0 0 1 56 32c2.757 0 5 2.243 5 5s-2.243 5-5 5zM28 27c-2.206 0-4 1.794-4 4v9h2v-4h4v4h2v-9c0-2.206-1.794-4-4-4zm-2 7v-3c0-1.103.897-2 2-2s2 .897 2 2v3zm12-7h-4v13h2v-5h2c2.206 0 4-1.794 4-4s-1.794-4-4-4zm0 6h-2v-4h2c1.103 0 2 .897 2 2s-.897 2-2 2zm22-20c-1.654 0-3 1.346-3 3s1.346 3 3 3 3-1.346 3-3-1.346-3-3-3zm0 4a1.001 1.001 0 0 1 0-2 1.001 1.001 0 0 1 0 2zm-1-8c0-1.654-1.346-3-3-3s-3 1.346-3 3 1.346 3 3 3 3-1.346 3-3zm-4 0a1.001 1.001 0 1 1 1 1c-.551 0-1-.448-1-1zM37.414 59H50v2H36.586l-5.293-5.293 1.414-1.414zM52 60c0 1.654 1.346 3 3 3s3-1.346 3-3-1.346-3-3-3-3 1.346-3 3zm4 0a1.001 1.001 0 0 1-2 0 1.001 1.001 0 0 1 2 0zm4-10c-1.654 0-3 1.346-3 3s1.346 3 3 3 3-1.346 3-3-1.346-3-3-3zm0 4a1.001 1.001 0 0 1 0-2 1.001 1.001 0 0 1 0 2zm-17-2h12v2H43zM4 7c1.654 0 3-1.346 3-3S5.654 1 4 1 1 2.346 1 4s1.346 3 3 3zm0-4a1.001 1.001 0 1 1-1 1c0-.552.449-1 1-1zm5 1c0 1.654 1.346 3 3 3s3-1.346 3-3-1.346-3-3-3-3 1.346-3 3zm4 0a1.001 1.001 0 0 1-2 0 1.001 1.001 0 0 1 2 0zm4 0c0 1.654 1.346 3 3 3s3-1.346 3-3-1.346-3-3-3-3 1.346-3 3zm4 0a1.001 1.001 0 0 1-2 0 1.001 1.001 0 0 1 2 0zm10 0c0-1.654-1.346-3-3-3s-3 1.346-3 3 1.346 3 3 3 3-1.346 3-3zm-4 0a1.001 1.001 0 1 1 1 1c-.551 0-1-.448-1-1z" opacity="1" data-original="url(#a)"></path></g></svg>