<svg xmlns="http://www.w3.org/2000/svg" version="1.1" xmlns:xlink="http://www.w3.org/1999/xlink" width="512" height="512" x="0" y="0" viewBox="0 0 64 64" style="enable-background:new 0 0 512 512" xml:space="preserve"><g><linearGradient id="a" x1="32" x2="32" y1="63" y2="1" gradientUnits="userSpaceOnUse"><stop offset="0" stop-color="#9f2fff"></stop><stop offset="1" stop-color="#0bb1d3"></stop></linearGradient><path fill="url(#a)" d="M10.186 18.606 7.382 13H5v-2h3.618l1.196 2.394L13 3.838 15.721 12H19v2h-4.721L13 10.162zM63 17v26c0 2.757-2.243 5-5 5h-5v1a1 1 0 0 0 1 1h6c1.654 0 3 1.346 3 3s-1.346 3-3 3H44.816A2.996 2.996 0 0 1 42 58h-4.158a3.435 3.435 0 0 1-.856.559l-8.136 3.698a8.182 8.182 0 0 1-2.994.72V63H3v-9.289c0-4.383 2.425-8.207 6-10.214v-2.808a9.759 9.759 0 0 1-6-9.014V26c0-2.081.918-3.947 2.364-5.23A11.017 11.017 0 0 1 1 12C1 5.935 5.935 1 12 1s11 4.935 11 11h14.051C37.558 6.402 42.272 2 48 2c5.76 0 10.492 4.453 10.954 10.096A5.006 5.006 0 0 1 63 17zm-24-4c0 4.962 4.037 9 9 9s9-4.038 9-9-4.037-9-9-9-9 4.038-9 9zm-16.203 1a10.911 10.911 0 0 1-4.712 7.148c.385.55.676 1.17.815 1.851H21c1.654 0 3 1.346 3 3s-1.346 3-3 3h-1.895l.74 7.399A4.167 4.167 0 0 1 19.677 38H61V17a2.993 2.993 0 0 0-2.063-2.835C58.353 19.684 53.672 24 48 24c-5.728 0-10.442-4.402-10.949-10zM21 26.999a1.001 1.001 0 0 0 0-2h-5.764a.994.994 0 0 0-.895.553l-.724 1.447zM7.197 19.59A6.956 6.956 0 0 1 10 19h4.001c.944 0 1.823.269 2.577.726C19.311 18.106 21 15.207 21 12c0-4.962-4.037-9-9-9s-9 4.038-9 9c0 3.09 1.604 5.945 4.197 7.59zM5 26.999h6.382l1.171-2.342a2.984 2.984 0 0 1 2.684-1.658h1.592A3.004 3.004 0 0 0 14.001 21H10c-2.757 0-5 2.243-5 5zm4 11.458v-3.043l-.646-.646A4.653 4.653 0 0 1 7 31.5c0-.902.262-1.761.741-2.501H5v2.676a7.756 7.756 0 0 0 4 6.782zm2-3.871v8.027A11.634 11.634 0 0 1 14.711 42c.097 0 .192.011.289.013V41h-2v-2h2.681c.575 0 1.139-.233 1.545-.64a2.174 2.174 0 0 0 .629-1.762l-.76-7.6h-6.68l-.647.647A2.608 2.608 0 0 0 9 31.5c0 .69.28 1.366.768 1.854zm20.507 24.267-1.171-2.634-5.921 2.692-.828-1.82 1.33-.605-.593-4.147C23.645 47.584 19.512 44 14.711 44 9.356 44 5 48.356 5 53.711V61h15.043a8.26 8.26 0 0 1-2.559-3.906l-1.442-4.807 1.916-.574L19.4 56.52A6.248 6.248 0 0 0 25.421 61c.904 0 1.779-.189 2.601-.563zM41 50.101V48h-8v4.476C34.238 50.95 36.187 50 38.236 50H40c.342 0 .677.035 1 .101zM31 48h-6.079a11.585 11.585 0 0 1 1.383 4.055l.51 3.568L31 53.72zm6 7.434c0-.79-.644-1.434-1.434-1.434-.243 0-.447.044-.632.128l-2.778 1.263 1.171 2.635 2.831-1.287c.512-.233.842-.745.842-1.305zM43 55c0-1.654-1.346-3-3-3h-1.764c-.499 0-.986.089-1.452.239A3.423 3.423 0 0 1 39 55.433c0 .192-.02.381-.052.566H42A.999.999 0 0 0 43 55zm8-6v-1h-8v3.026A4.99 4.99 0 0 1 44.899 54H60a1 1 0 0 0 0-2h-6c-1.654 0-3-1.346-3-3zm10-6v-3H18.364c-.405.34-.865.598-1.364.765v1.47A11.792 11.792 0 0 1 23.488 46H58c1.654 0 3-1.346 3-3zm-12 1h2v-2h-2zm8 0h2v-2h-2zm-4 0h2v-2h-2zM44 8h-2v2h2zm10 0h-8v2h8zm-10 4h-2v2h2zm10 0h-8v2h8zm-10 4h-2v2h2zm10 0h-8v2h8zM36 36H26v-8h10zm-2-6h-6v4h6zm2-6H26v2h10zm0-4H26v2h10zm0-4H26v2h10zm4 18h-2v2h2zm2 2h17v-2H42zm17-6H38v2h21zm0-4H38v2h21z" opacity="1" data-original="url(#a)"></path></g></svg>