<svg xmlns="http://www.w3.org/2000/svg" version="1.1" xmlns:xlink="http://www.w3.org/1999/xlink" width="512" height="512" x="0" y="0" viewBox="0 0 512 512" style="enable-background:new 0 0 512 512" xml:space="preserve"><g><linearGradient id="a" x1="256" x2="256" y1="507.996" y2="4.004" gradientUnits="userSpaceOnUse"><stop offset="0" stop-color="#9345ff"></stop><stop offset="0" stop-color="#8e4aff"></stop><stop offset="1" stop-color="#00c1ff"></stop></linearGradient><path fill="url(#a)" d="m464.946 189.969-80.862-80.863c-6.146-6.342-13.805-9.694-22.15-9.694H220.211a62.417 62.417 0 0 0-.088-2.631c1.141-.412 2.277-.82 3.449-1.254a7 7 0 0 0 4.571-6.565v-7.787a6.984 6.984 0 0 0-2.786-5.58v-.485c0-29.228-19.53-55.238-47.143-63.795a6.988 6.988 0 0 0-5.329-5.703 64.276 64.276 0 0 0-28.581 0 6.986 6.986 0 0 0-5.329 5.703c-27.613 8.558-47.143 34.567-47.143 63.795v.485a6.982 6.982 0 0 0-2.786 5.58v7.787a7 7 0 0 0 4.571 6.565c1.172.434 2.308.842 3.449 1.254a61.972 61.972 0 0 0-.102 3.365c0 22.095 11.694 41.502 29.211 52.383-18.44 5.084-35.54 14.488-49.898 27.68-22.362 20.548-36.173 48.46-38.888 78.594a6.91 6.91 0 0 0-.028.628v18.983a7 7 0 0 0 7 7h107.233v215.583a7.003 7.003 0 0 0 7 7h309.045a7 7 0 0 0 7-7v-288.88c0-8.348-3.353-16.005-9.694-22.149zm-70.563-50.765 40.463 40.464h-40.463zM138.342 26.422l-1.063 28.646a7.001 7.001 0 0 0 6.735 7.255 6.968 6.968 0 0 0 7.255-6.736l1.381-37.235a49.958 49.958 0 0 1 11.886 0l1.382 37.235a7 7 0 1 0 13.99-.52l-1.063-28.645c18.998 7.984 32.109 26.749 32.489 47.753H105.852c.38-21.004 13.491-39.769 32.489-47.753zm63.614 61.753c-17.092 5.381-30.366 7.722-43.361 7.822-12.996-.1-26.27-2.441-43.362-7.822zm-90.957 13.335c18.524 5.835 33.074 8.382 47.545 8.487h.102c14.471-.105 29.021-2.652 47.544-8.487-.727 25.633-21.79 46.265-47.595 46.265s-46.869-20.632-47.596-46.265zm129.356 97.909c14.084 16.378 23.32 37.164 25.472 60.332v11.663h-25.472zm-14 71.995H90.833v-85.55a106.905 106.905 0 0 1 22.669-13.99v31.985c0 6.736 5.481 12.217 12.217 12.217h65.748c6.736 0 12.217-5.48 12.217-12.217v-31.985a106.872 106.872 0 0 1 22.67 13.99v85.55zm-67.761-109.269c10.81 0 21.246 1.568 31.091 4.489v35.442h-62.183v-35.442c9.845-2.921 20.281-4.489 31.091-4.489zM51.361 259.751c2.152-23.168 11.388-43.954 25.473-60.333v71.996H51.361zM460.64 493.997H165.594V285.414h107.232a7 7 0 0 0 7-7v-18.983c0-.209-.01-.419-.028-.628-2.715-30.134-16.525-58.046-38.888-78.594-14.357-13.193-31.458-22.596-49.897-27.68 13.906-8.638 24.13-22.651 27.757-39.117h143.163c4.607 0 8.573 1.789 12.125 5.467l.086.087.603.602c3.634 3.767 5.636 8.706 5.636 13.909v53.191a7 7 0 0 0 7 7h53.191c5.199 0 10.134 2 13.902 5.629l.609.609.088.087c3.678 3.55 5.466 7.516 5.466 12.125v281.878zm-35.356-136.416h-11.786v-31.665a7 7 0 0 0-7-7h-51.54v-33.501h18.081c7.52 0 13.637-6.118 13.637-13.637v-50.161c0-7.519-6.118-13.637-13.637-13.637h-50.161c-7.52 0-13.637 6.118-13.637 13.637v50.161c0 7.52 6.118 13.637 13.637 13.637h18.081v33.501H219.737a7 7 0 0 0-7 7v31.665h-11.786c-6.601 0-11.972 5.37-11.972 11.971v37.573c0 6.601 5.371 11.971 11.972 11.971h37.573c6.601 0 11.972-5.37 11.972-11.971v-37.573c0-6.601-5.371-11.971-11.972-11.971h-11.787v-24.665h79.381v24.665h-11.787c-6.601 0-11.972 5.37-11.972 11.971v37.573c0 6.601 5.371 11.971 11.972 11.971h37.573c6.601 0 11.972-5.37 11.972-11.971v-37.573c0-6.601-5.371-11.971-11.972-11.971h-11.786v-24.665h79.381v24.665h-11.787c-6.601 0-11.972 5.37-11.972 11.971v37.573c0 6.601 5.371 11.971 11.972 11.971h37.573c6.601 0 11.972-5.37 11.972-11.971v-37.573c0-6.601-5.371-11.971-11.972-11.971zM323.24 221.979h49.436v49.435H323.24zm-86.746 183.117h-33.516V371.58h33.516zm93.38 0h-33.516V371.58h33.516zm93.381 0h-33.516V371.58h33.516z" opacity="1" data-original="url(#a)"></path></g></svg>