<svg xmlns="http://www.w3.org/2000/svg" version="1.1" xmlns:xlink="http://www.w3.org/1999/xlink" width="512" height="512" x="0" y="0" viewBox="0 0 450 450" style="enable-background:new 0 0 512 512" xml:space="preserve"><g><linearGradient id="a" x1="92.246" x2="419.703" y1="359.372" y2="31.915" gradientTransform="matrix(1 0 0 -1 0 452)" gradientUnits="userSpaceOnUse"><stop offset="0" stop-color="#00dbde"></stop><stop offset="1" stop-color="#fc00ff"></stop></linearGradient><path fill="url(#a)" d="M127.78 407.03H27.61c-12.88 0-23.35-10.48-23.35-23.35V190.27c0-12.88 10.48-23.35 23.35-23.35h100.17c12.88 0 23.35 10.48 23.35 23.35 0 2.76-2.24 5-5 5s-5-2.24-5-5c0-7.36-5.99-13.35-13.35-13.35H27.61c-7.36 0-13.35 5.99-13.35 13.35v193.41c0 7.36 5.99 13.35 13.35 13.35h100.17c7.36 0 13.35-5.99 13.35-13.35 0-2.76 2.24-5 5-5s5 2.24 5 5c0 12.88-10.48 23.35-23.35 23.35zm-50.09-68.38c-28.49 0-51.67-23.18-51.67-51.67s23.18-51.67 51.67-51.67 51.67 23.18 51.67 51.67-23.18 51.67-51.67 51.67zm0-93.34c-22.98 0-41.67 18.69-41.67 41.67s18.69 41.67 41.67 41.67 41.67-18.69 41.67-41.67-18.69-41.67-41.67-41.67zm36.96 75.17a5 5 0 0 1-4.84-3.76c-2.49-9.67-9.43-17.9-18.58-21.99-2.52-1.13-3.65-4.09-2.52-6.61s4.09-3.65 6.61-2.52c11.9 5.33 20.93 16.03 24.17 28.63.69 2.67-.92 5.4-3.6 6.09-.41.11-.83.16-1.24.16zm-73.91 0a5.012 5.012 0 0 1-4.85-6.25c3.24-12.6 12.28-23.3 24.17-28.63a5.003 5.003 0 0 1 4.09 9.13c-9.14 4.1-16.09 12.32-18.58 21.99a4.99 4.99 0 0 1-4.83 3.76zM94 194.74H61.39c-2.76 0-5-2.24-5-5s2.24-5 5-5H94c2.76 0 5 2.24 5 5s-2.24 5-5 5zm-6.63 19.3H68.01c-2.76 0-5-2.24-5-5s2.24-5 5-5h19.36c2.76 0 5 2.24 5 5s-2.23 5-5 5zm0 175.17H68.01c-2.76 0-5-2.24-5-5s2.24-5 5-5h19.36c2.76 0 5 2.24 5 5s-2.23 5-5 5zm335.87 17.82H164.15c-12.69 0-23.02-10.33-23.02-23.02V67.47c0-12.69 10.33-23.02 23.02-23.02h259.09c12.7 0 23.02 10.33 23.02 23.02v316.54c0 12.69-10.33 23.02-23.02 23.02zM164.15 54.45c-7.18 0-13.02 5.84-13.02 13.02v316.54c0 7.18 5.84 13.02 13.02 13.02h259.09c7.18 0 13.02-5.84 13.02-13.02V67.47c0-7.18-5.84-13.02-13.02-13.02zm113.21 236.84h-95.75c-8.66 0-15.7-7.04-15.7-15.7V175.9c0-8.66 7.04-15.7 15.7-15.7h95.75c8.66 0 15.7 7.04 15.7 15.7v99.69c0 8.65-7.04 15.7-15.7 15.7zm-95.75-121.1a5.71 5.71 0 0 0-5.7 5.7v99.69c0 3.14 2.56 5.7 5.7 5.7h95.75c3.14 0 5.7-2.56 5.7-5.7v-99.69c0-3.14-2.56-5.7-5.7-5.7zm226.79 121.1h-72.27c-7.21 0-13.08-5.87-13.08-13.08V173.27c0-7.21 5.87-13.08 13.08-13.08h72.27c7.21 0 13.08 5.87 13.08 13.08v104.94c0 7.21-5.87 13.08-13.08 13.08zm-72.27-121.1c-1.67 0-3.08 1.41-3.08 3.08v104.94c0 1.67 1.41 3.08 3.08 3.08h72.27c1.67 0 3.08-1.41 3.08-3.08V173.27c0-1.67-1.41-3.08-3.08-3.08zm-110.88 92.33a4.98 4.98 0 0 1-3.16-1.13 5.002 5.002 0 0 1-.71-7.04l38.6-47.28a5.024 5.024 0 0 1 4.17-1.83c1.6.1 3.06.95 3.92 2.31l24.21 38.04c1.48 2.33.8 5.42-1.53 6.9s-5.42.79-6.9-1.53l-20.49-32.21-34.23 41.92c-1 1.23-2.43 1.85-3.88 1.85zm18.31 28.77c-1.65 0-3.27-.82-4.22-2.32l-31.05-48.8-33.28 40.75c-1.75 2.14-4.9 2.46-7.04.71s-2.46-4.9-.71-7.04l37.65-46.11a4.996 4.996 0 0 1 8.09.48l34.77 54.64c1.48 2.33.8 5.42-1.53 6.9-.84.54-1.76.79-2.68.79zm162.22-146.86H181.61c-8.66 0-15.7-7.04-15.7-15.7V85.92c0-8.66 7.04-15.7 15.7-15.7h224.17c8.66 0 15.7 7.04 15.7 15.7v42.81c0 8.65-7.05 15.7-15.7 15.7zM181.61 80.22a5.71 5.71 0 0 0-5.7 5.7v42.81c0 3.14 2.56 5.7 5.7 5.7h224.17c3.14 0 5.7-2.56 5.7-5.7V85.92c0-3.14-2.56-5.7-5.7-5.7zm175.77 40.97c-5.15 0-10-2.01-13.64-5.65s-5.65-8.49-5.65-13.64 2.01-10 5.65-13.64c7.52-7.52 19.76-7.52 27.28 0s7.52 19.76 0 27.28a19.176 19.176 0 0 1-13.64 5.65zm0-28.58c-2.38 0-4.76.91-6.57 2.72-1.76 1.75-2.72 4.09-2.72 6.57s.97 4.82 2.72 6.57c1.76 1.76 4.09 2.72 6.57 2.72s4.82-.97 6.57-2.72c3.62-3.62 3.62-9.52 0-13.14a9.226 9.226 0 0 0-6.57-2.72zm-10.11-.82h.01zm35.25 40.25c-1.28 0-2.56-.49-3.54-1.46l-15.03-15.04c-1.95-1.95-1.95-5.12 0-7.07s5.12-1.95 7.07 0l15.03 15.04a5.003 5.003 0 0 1 0 7.07c-.97.97-2.25 1.46-3.53 1.46zm-81.34-20h-96.31c-2.76 0-5-2.24-5-5s2.24-5 5-5h96.31c2.76 0 5 2.24 5 5s-2.24 5-5 5zm-88.03 269.22h-33.79c-7.41 0-13.45-6.03-13.45-13.45V320.5c0-7.42 6.03-13.45 13.45-13.45h33.79c7.41 0 13.45 6.03 13.45 13.45v47.31c0 7.42-6.03 13.45-13.45 13.45zm-33.79-64.2c-1.87 0-3.45 1.58-3.45 3.45v47.31c0 1.9 1.55 3.45 3.45 3.45h33.79c1.9 0 3.45-1.55 3.45-3.45V320.5c0-1.87-1.58-3.45-3.45-3.45h-33.79zm226.42 64.2H272.29c-8.66 0-15.7-7.04-15.7-15.7v-42.81c0-8.66 7.04-15.7 15.7-15.7h133.49c8.66 0 15.7 7.04 15.7 15.7v42.81c0 8.66-7.05 15.7-15.7 15.7zm-133.49-64.2a5.71 5.71 0 0 0-5.7 5.7v42.81c0 3.14 2.56 5.7 5.7 5.7h133.49c3.14 0 5.7-2.56 5.7-5.7v-42.81c0-3.14-2.56-5.7-5.7-5.7zm-47.38-96.32c-11.18 0-20.28-9.1-20.28-20.28s9.1-20.28 20.28-20.28 20.28 9.1 20.28 20.28-9.1 20.28-20.28 20.28zm0-30.56c-5.67 0-10.28 4.61-10.28 10.28s4.61 10.28 10.28 10.28 10.28-4.61 10.28-10.28-4.62-10.28-10.28-10.28zm171.01 1.41h-47.31c-2.76 0-5-2.24-5-5s2.24-5 5-5h47.31c2.76 0 5 2.24 5 5s-2.24 5-5 5zm0 26.1h-47.31c-2.76 0-5-2.24-5-5s2.24-5 5-5h47.31c2.76 0 5 2.24 5 5s-2.24 5-5 5zm0 26.1h-47.31c-2.76 0-5-2.24-5-5s2.24-5 5-5h47.31c2.76 0 5 2.24 5 5s-2.24 5-5 5zm0 26.1h-47.31c-2.76 0-5-2.24-5-5s2.24-5 5-5h47.31c2.76 0 5 2.24 5 5s-2.24 5-5 5zm-80.97 79.27h-31.82c-2.76 0-5-2.24-5-5s2.24-5 5-5h31.82c2.76 0 5 2.24 5 5s-2.23 5-5 5zm79.98 0h-62.8c-2.76 0-5-2.24-5-5s2.24-5 5-5h62.8c2.76 0 5 2.24 5 5s-2.23 5-5 5zM77.69 302.49c-13.92 0-25.25-11.33-25.25-25.25S63.77 252 77.69 252s25.25 11.33 25.25 25.25-11.33 25.24-25.25 25.24zm0-40.49c-8.41 0-15.25 6.84-15.25 15.25s6.84 15.25 15.25 15.25 15.25-6.84 15.25-15.25S86.1 262 77.69 262z" opacity="1" data-original="url(#a)"></path></g></svg>